<svg xmlns="http://www.w3.org/2000/svg" width="143.491" height="22.577" viewBox="0 0 143.491 22.577">
  <g id="Group_189" data-name="Group 189" transform="translate(-517.467 -1582.155)">
    <g id="Group_187" data-name="Group 187" transform="translate(517.467 1582.155)">
      <path id="Path_2421" data-name="Path 2421" d="M521.376,1582.961a.3.3,0,0,1,.3.3v13.269a4.7,4.7,0,0,0,1.037,3.208,4.7,4.7,0,0,0,6.867,0,4.7,4.7,0,0,0,1.037-3.208v-13.269a.3.3,0,0,1,.3-.3h3.607a.3.3,0,0,1,.3.3v12.913a9.087,9.087,0,0,1-1.62,5.766,9.572,9.572,0,0,1-14.122,0,9.091,9.091,0,0,1-1.62-5.766v-12.913a.3.3,0,0,1,.3-.3Z" transform="translate(-517.467 -1582.474)" fill="#356859"/>
      <path id="Path_2422" data-name="Path 2422" d="M557.67,1593.027l-6.067-9.6a.3.3,0,0,1,.255-.463h3.977a.905.905,0,0,1,.788.46l3.318,5.871a.249.249,0,0,0,.431,0l3.5-5.892a.907.907,0,0,1,.779-.443h3.981a.3.3,0,0,1,.253.467l-6.249,9.6a.249.249,0,0,0,0,.271l7,10.8a.3.3,0,0,1-.254.466H565.4a.906.906,0,0,1-.777-.441l-4.257-7.115a.249.249,0,0,0-.424-.005l-4.505,7.139a.906.906,0,0,1-.766.423h-3.988a.3.3,0,0,1-.25-.47l7.239-10.8A.249.249,0,0,0,557.67,1593.027Z" transform="translate(-530.509 -1582.474)" fill="#356859"/>
      <path id="Path_2423" data-name="Path 2423" d="M605.837,1593.46c0,6.576-4.729,11.272-11.531,11.272s-11.531-4.7-11.531-11.272,4.729-11.305,11.531-11.305S605.837,1586.884,605.837,1593.46Zm-4.34,0c0-4.373-2.98-7.483-7.191-7.483s-7.191,3.11-7.191,7.483,2.98,7.45,7.191,7.45S601.5,1597.833,601.5,1593.46Z" transform="translate(-543.349 -1582.155)" fill="#356859"/>
      <path id="Path_2424" data-name="Path 2424" d="M633.706,1582.961c2.429,0,4.114.258,5.7,1.652a7.346,7.346,0,0,1,.421,10.041,7.4,7.4,0,0,1-5.474,1.911H633.2a1.567,1.567,0,0,0-1.567,1.567v6.132a.3.3,0,0,1-.3.3h-3.607a.3.3,0,0,1-.3-.3v-21a.3.3,0,0,1,.3-.3Zm-2.073,9.674a.3.3,0,0,0,.3.3h1.414a4.308,4.308,0,0,0,2.753-.68,3.222,3.222,0,0,0,1.166-2.526,2.977,2.977,0,0,0-1.2-2.461,5.069,5.069,0,0,0-2.98-.68h-1.156a.3.3,0,0,0-.3.3Z" transform="translate(-561.043 -1582.474)"/>
      <path id="Path_2425" data-name="Path 2425" d="M662.33,1582.961c2.98,0,4.5.777,5.506,1.619a6.136,6.136,0,0,1,2.138,4.859,5.9,5.9,0,0,1-2.526,5.086,5.715,5.715,0,0,1-1.925.843.3.3,0,0,0-.162.47l6.1,8.246a.3.3,0,0,1-.243.482h-4.162a.906.906,0,0,1-.755-.4l-5.5-8.277h-.518v8.379a.3.3,0,0,1-.3.3h-3.607a.3.3,0,0,1-.3-.3v-21a.3.3,0,0,1,.3-.3Zm-2.04,9.515a.429.429,0,0,0,.429.43h.768c.81,0,4.146-.1,4.146-3.272,0-3.207-3.3-3.24-4.081-3.24h-.808a.455.455,0,0,0-.455.455Z" transform="translate(-572.4 -1582.474)"/>
      <path id="Path_2426" data-name="Path 2426" d="M706.775,1593.46c0,6.576-4.729,11.272-11.531,11.272s-11.531-4.7-11.531-11.272,4.729-11.305,11.531-11.305S706.775,1586.884,706.775,1593.46Zm-4.341,0c0-4.373-2.98-7.483-7.191-7.483s-7.191,3.11-7.191,7.483,2.98,7.45,7.191,7.45S702.435,1597.833,702.435,1593.46Z" transform="translate(-583.351 -1582.155)"/>
    </g>
    <circle id="Ellipse_12" data-name="Ellipse 12" cx="1.814" cy="1.814" r="1.814" transform="translate(657.33 1583.715)" fill="#356859"/>
    <circle id="Ellipse_13" data-name="Ellipse 13" cx="6.672" cy="6.672" r="6.672" transform="translate(644.61 1586.723)" fill="#356859"/>
    <path id="Path_2445" data-name="Path 2445" d="M663.8,1604.717a.423.423,0,0,0-.332-.163.432.432,0,0,0-.435.429l-.028-.667.548.022Z" transform="translate(-57.677 -8.782)"/>
  </g>
</svg>
